<?xml version="1.0" encoding="UTF-8" standalone="no"?>
<!DOCTYPE svg PUBLIC "-//W3C//DTD SVG 1.1//EN" "http://www.w3.org/Graphics/SVG/1.1/DTD/svg11.dtd">
<svg width="100%" height="100%" viewBox="0 0 82 105" version="1.1" xmlns="http://www.w3.org/2000/svg" xmlns:xlink="http://www.w3.org/1999/xlink" xml:space="preserve" xmlns:serif="http://www.serif.com/" style="fill-rule:evenodd;clip-rule:evenodd;stroke-linejoin:round;stroke-miterlimit:2;">
    <g transform="matrix(1,0,0,1,-460.549,-277.619)">
        <path d="M477.49,374.55C477.24,371.21 477.02,367.87 476.74,364.53C476.58,362.58 475.89,361.92 473.9,361.64C472.56,361.45 471.2,361.32 469.89,361.01C465.34,359.94 462.39,357.12 461.5,352.53C460.93,349.57 460.56,346.52 460.55,343.51C460.53,336.89 460.78,330.27 460.96,323.65C461.04,320.55 460.99,317.41 461.4,314.35C462.06,309.44 464.64,306.82 469.41,305.74C470.8,305.42 472.22,305.17 473.63,305.03C475.84,304.81 476.93,304.07 477.17,301.9C477.65,297.57 479.17,293.55 480.6,289.49C482.41,284.33 486.21,281.05 490.88,278.68C492.17,278.03 493.79,277.81 495.27,277.78C500.62,277.68 505.99,277.46 511.31,277.81C519.09,278.31 525.56,281.6 530.26,288C533.33,292.18 536.39,296.36 539.38,300.59C540.06,301.55 540.55,302.68 540.94,303.79C542.11,307.1 542.11,310.58 541.67,313.96C541.4,316.02 540.49,318.13 539.38,319.92C538.15,321.91 537.66,323.89 538.19,326.06C540.07,333.77 539.15,341.43 537.96,349.11C537.04,355.02 536.25,360.95 535.17,366.83C534.71,369.3 533.63,371.66 532.84,374.06C532.25,374.42 531.55,374.68 531.08,375.16C529.47,376.81 527.59,377.54 525.28,377.43C523.13,377.32 520.97,377.33 518.82,377.43C515.68,377.57 513.51,376.19 511.96,373.54C511.54,372.82 510.83,372.26 510.26,371.63C509.9,369.22 509.55,366.8 509.19,364.39C509.05,363.44 508.65,362.66 507.55,362.75C506.49,362.84 506.5,363.7 506.47,364.53C506.38,366.9 506.24,369.27 506.12,371.63C504.81,372.16 504.91,373.5 504.75,374.49C504.41,376.59 503.15,377.99 501.58,379.08C495.22,383.5 488.61,383.09 481.92,379.86C480.28,379.07 479.16,377.75 478.48,376.04C478.27,375.48 477.83,375.04 477.49,374.55ZM536.16,308.42C536.35,306.15 535.32,304.39 533.68,302.99C529.26,299.24 524.17,296.98 518.31,297.44C513.55,297.81 508.84,298.73 504.11,299.46C503.7,299.52 503.35,299.96 502.97,300.22C502.75,300.3 502.46,300.32 502.33,300.48C499.49,303.72 498.53,311.14 502.28,315.06C505.92,318.86 510.26,320.73 515.46,320.87C521.36,321.04 526.82,319.39 531.97,316.71C533.26,316.04 534.48,314.93 535.31,313.72C536.35,312.19 537.26,310.4 536.16,308.42ZM467.79,319.35C467.61,319.95 467.31,320.55 467.28,321.15C466.94,328.93 465.96,336.71 466.73,344.51C466.93,346.48 467.19,348.47 467.66,350.39C468.53,353.94 470.62,355.44 474.22,355.37C476.34,355.33 476.86,354.72 476.64,352.57C476.5,351.23 476.29,349.88 476.27,348.53C476.12,340.33 476.02,332.12 475.91,323.92C475.88,322.09 475.84,320.26 475.81,318.43C476.01,316.69 476.21,314.96 476.42,313.22C476.55,312.11 475.93,311.67 474.94,311.44C471.66,310.7 469.19,312.09 468.36,315.33C468.02,316.64 467.97,318.02 467.79,319.35ZM487.16,291.44C486.42,292.91 485.42,294.31 484.99,295.87C483.05,302.8 481.82,309.9 481.71,317.08C481.46,333.18 481.29,349.3 483.03,365.35C483.3,367.88 483.73,370.4 484.15,372.91C484.44,374.66 485.4,375.86 487.27,376.03C489.4,376.22 491.56,376.53 493.68,376.41C495.96,376.28 497.84,375.03 498.67,372.84C499.19,371.47 499.28,369.92 499.41,368.43C499.68,365.5 499.61,362.52 500.14,359.64C500.76,356.24 502.26,355.52 505.63,356.08C510.9,356.95 516.2,357.6 521.56,356.85C522.2,356.76 522.88,356.93 523.72,356.99C522.24,358.81 521.54,359.37 519.38,360.22C517.61,360.92 516.42,362.12 516.02,363.97C515.77,365.13 515.58,366.33 515.56,367.51C515.52,370.8 517.24,372.57 520.48,372.67C521.83,372.71 523.19,372.67 524.55,372.61C527.68,372.45 528.59,371.41 528.59,368.28C528.59,366.14 528.55,363.96 528.89,361.85C529.9,355.57 531.86,349.46 532.15,343.03C532.39,337.69 532.76,332.36 531.8,327.06C531.77,325.99 531.74,324.92 531.7,323.61C530.51,323.8 529.66,323.9 528.82,324.09C525.4,324.85 522.01,325.78 518.56,326.39C514.19,327.17 509.83,326.94 505.55,325.61C501.15,324.24 498.14,321.44 496.4,317.16C494.36,312.13 494.16,306.94 494.87,301.65C495.45,297.31 497.22,295.28 501.42,294.19C506.39,292.9 511.42,292.22 516.57,292.51C518.32,292.61 520.08,292.6 521.83,292.56C522.4,292.55 522.97,292.28 523.83,292.06C520.16,287.55 515.84,284.66 510.38,284.06C506.03,283.58 501.62,283.54 497.24,283.56C493.02,283.57 488.16,287.53 487.16,291.44Z" style="fill:rgb(10,11,13);fill-rule:nonzero;"/>
    </g>
    <g transform="matrix(1,0,0,1,-460.549,-277.619)">
        <path d="M487.16,291.44C488.17,287.53 493.02,283.57 497.25,283.55C501.63,283.53 506.04,283.57 510.39,284.05C515.85,284.65 520.17,287.54 523.84,292.05C522.98,292.28 522.41,292.54 521.84,292.55C520.09,292.59 518.33,292.6 516.58,292.5C511.43,292.22 506.4,292.89 501.43,294.18C497.22,295.27 495.46,297.29 494.88,301.64C494.17,306.93 494.37,312.12 496.41,317.15C498.15,321.42 501.16,324.22 505.56,325.6C509.84,326.94 514.2,327.16 518.57,326.38C522.02,325.77 525.41,324.84 528.83,324.08C529.66,323.89 530.52,323.8 531.71,323.6C531.75,324.92 531.78,325.99 531.81,327.05C531.68,327.42 531.47,327.77 531.43,328.15C531,332.37 530.01,336.45 528.62,340.45C527.5,343.67 525.41,345.82 522.11,346.9C517.21,348.5 512.25,348.55 507.24,347.84C504.25,347.42 501.3,346.67 498.31,346.33C496.9,346.17 495.9,345.67 495.07,344.63C492.38,341.22 490.23,337.52 489.25,333.24C487.87,327.19 486.85,321.09 486.27,314.9C485.64,308.05 485.56,301.25 487.07,294.49C487.28,293.51 487.13,292.46 487.16,291.44Z" style="fill:rgb(237,95,2);fill-rule:nonzero;"/>
    </g>
    <g transform="matrix(1,0,0,1,-460.549,-277.619)">
        <path d="M487.16,291.44C487.14,292.46 487.28,293.52 487.06,294.49C485.55,301.25 485.63,308.05 486.26,314.9C486.83,321.09 487.86,327.19 489.24,333.24C490.22,337.52 492.36,341.22 495.06,344.63C495.89,345.68 496.89,346.17 498.3,346.33C501.3,346.67 504.24,347.42 507.23,347.84C512.24,348.55 517.21,348.5 522.1,346.9C525.41,345.82 527.5,343.67 528.61,340.45C530,336.45 530.99,332.37 531.42,328.15C531.46,327.78 531.67,327.42 531.8,327.05C532.76,332.36 532.38,337.69 532.15,343.02C531.87,349.44 529.9,355.55 528.89,361.84C528.55,363.95 528.6,366.12 528.59,368.27C528.59,371.4 527.68,372.44 524.55,372.6C523.2,372.67 521.84,372.71 520.48,372.66C517.24,372.56 515.52,370.78 515.56,367.5C515.57,366.32 515.77,365.12 516.02,363.96C516.42,362.11 517.6,360.91 519.38,360.21C521.54,359.36 522.24,358.8 523.72,356.98C522.88,356.92 522.2,356.75 521.56,356.84C516.2,357.59 510.9,356.94 505.63,356.07C502.26,355.52 500.76,356.23 500.14,359.63C499.62,362.51 499.69,365.49 499.41,368.42C499.27,369.91 499.19,371.46 498.67,372.83C497.84,375.02 495.96,376.26 493.68,376.4C491.56,376.52 489.41,376.22 487.27,376.02C485.41,375.85 484.44,374.65 484.15,372.9C483.73,370.39 483.31,367.87 483.03,365.34C481.29,349.29 481.46,333.17 481.71,317.07C481.82,309.89 483.04,302.79 484.99,295.86C485.42,294.31 486.42,292.91 487.16,291.44Z" style="fill:rgb(167,22,3);fill-rule:nonzero;"/>
    </g>
    <g transform="matrix(1,0,0,1,-460.549,-277.619)">
        <path d="M475.81,318.44C475.84,320.27 475.89,322.1 475.91,323.93C476.03,332.14 476.13,340.34 476.27,348.54C476.29,349.89 476.5,351.23 476.64,352.58C476.86,354.74 476.35,355.34 474.22,355.38C470.62,355.45 468.53,353.94 467.66,350.4C467.19,348.48 466.92,346.49 466.73,344.52C465.96,336.71 466.93,328.94 467.28,321.16C467.31,320.55 467.61,319.96 467.79,319.36C470.46,319.05 473.14,318.74 475.81,318.44Z" style="fill:rgb(167,22,3);fill-rule:nonzero;"/>
    </g>
    <g transform="matrix(1,0,0,1,-460.549,-277.619)">
        <path d="M536.16,308.42C537.27,310.4 536.36,312.19 535.31,313.72C534.49,314.92 533.27,316.04 531.97,316.71C526.81,319.39 521.36,321.04 515.46,320.87C510.26,320.72 505.92,318.86 502.28,315.06C498.53,311.14 499.49,303.72 502.33,300.48C502.47,300.32 502.76,300.3 502.97,300.22C503.42,301.49 503.9,302.75 504.3,304.04C506.14,309.82 509.38,312.28 515.43,312.12C519.89,312.01 524.33,311.58 528.79,311.35C531.59,311.2 534.1,310.38 536.16,308.42Z" style="fill:rgb(42,91,104);fill-rule:nonzero;"/>
    </g>
    <g transform="matrix(1,0,0,1,-460.549,-277.619)">
        <path d="M536.16,308.42C534.1,310.38 531.6,311.2 528.8,311.35C524.35,311.59 519.9,312.01 515.44,312.12C509.39,312.27 506.15,309.81 504.31,304.04C503.9,302.75 503.42,301.49 502.98,300.22C503.36,299.96 503.71,299.53 504.12,299.46C508.85,298.73 513.56,297.81 518.32,297.44C524.18,296.98 529.26,299.24 533.69,302.99C535.32,304.38 536.34,306.14 536.16,308.42ZM524.62,306.14L524.63,306.08C526.06,306.08 527.49,306.06 528.92,306.09C529.97,306.11 531.01,305.82 531.18,304.78C531.3,304.06 530.93,302.92 530.38,302.49C529.23,301.58 527.87,300.85 526.48,300.36C525.08,299.86 523.55,299.55 522.06,299.5C519.86,299.42 517.62,299.42 515.46,299.79C513.72,300.09 512.95,301.58 513.17,303.17C513.34,304.43 514.38,305.34 516.08,305.5C518.93,305.76 521.78,305.93 524.62,306.14Z" style="fill:rgb(151,226,229);fill-rule:nonzero;"/>
    </g>
    <g transform="matrix(1,0,0,1,-460.549,-277.619)">
        <path d="M475.81,318.44C473.14,318.74 470.47,319.05 467.8,319.35C467.98,318.01 468.03,316.64 468.36,315.34C469.19,312.1 471.66,310.71 474.94,311.45C475.93,311.67 476.55,312.12 476.42,313.23C476.21,314.97 476.01,316.7 475.81,318.44Z" style="fill:rgb(237,95,2);fill-rule:nonzero;"/>
    </g>
    <g transform="matrix(1,0,0,1,-460.549,-277.619)">
        <path d="M524.62,306.14C521.77,305.93 518.92,305.76 516.08,305.49C514.38,305.33 513.34,304.42 513.17,303.16C512.95,301.57 513.72,300.07 515.46,299.78C517.62,299.41 519.86,299.41 522.06,299.49C523.55,299.55 525.08,299.85 526.48,300.35C527.87,300.84 529.23,301.57 530.38,302.48C530.93,302.92 531.3,304.05 531.18,304.77C531.01,305.81 529.97,306.1 528.92,306.08C527.49,306.05 526.06,306.07 524.63,306.07L524.62,306.14Z" style="fill:rgb(247,254,253);fill-rule:nonzero;"/>
    </g>
</svg>
